<svg xmlns="http://www.w3.org/2000/svg" viewBox="0 0 24 24" width="24" height="24">
    <path d="M12 14c-1.657 0-3-1.343-3-3V9h2v2c0 .552.448 1 1 1s1-.448 1-1V9h2v2c0 1.657-1.343 3-3 3zm1-9h-2c-1.654 0-3 1.346-3 3v1h2v-1c0-.554.449-1 1-1s1 .446 1 1v1h2v-1c0-1.654-1.346-3-3-3z" fill="#fff"/>
    <circle cx="9" cy="13" r="1" fill="#fff"/>
    <circle cx="15" cy="13" r="1" fill="#fff"/>
    <path d="M12 16.2c-.15 0-.3-.04-.436-.12-.46-.24-.647-.85-.406-1.31.28-.53.53-1.06.772-1.58.23-.48.46-.96.685-1.44.02-.04.036-.076.056-.12.64-1.34 1.43-2.56 2.37-3.64.246-.3.62-.42.97-.31.31.1.55.38.62.71.15.55.22 1.11.22 1.68 0 3.86-3.14 7-7 7zm0-11c-3.31 0-6 2.69-6 6 0 .99.25 1.93.7 2.74.1.19.32.3.56.3h9.48c.24 0 .46-.11.56-.3.44-.81.7-1.75.7-2.74 0-3.31-2.69-6-6-6zm0 11c-2.76 0-5-2.24-5-5 0-.69.14-1.36.41-1.98.08-.17.23-.33.44-.44.67-.41 1.43-.64 2.25-.64s1.58.23 2.25.64c.2.12.35.28.44.44"/>
</svg>
